<mxfile host="Electron" modified="2023-11-14T11:15:39.764Z" agent="Mozilla/5.0 (Windows NT 10.0; Win64; x64) AppleWebKit/537.36 (KHTML, like Gecko) draw.io/22.0.3 Chrome/114.0.5735.289 Electron/25.8.4 Safari/537.36" etag="k2J3gUEOq98BArVakhKz" version="22.0.3" type="device">
  <diagram name="Page-1" id="2YBvvXClWsGukQMizWep">
    <mxGraphModel dx="1036" dy="606" grid="1" gridSize="10" guides="1" tooltips="1" connect="1" arrows="1" fold="1" page="1" pageScale="1" pageWidth="850" pageHeight="1100" math="0" shadow="0">
      <root>
        <mxCell id="0" />
        <mxCell id="1" parent="0" />
        <mxCell id="aM9ryv3xv72pqoxQDRHE-1" value="Admin" style="shape=umlLifeline;perimeter=lifelinePerimeter;whiteSpace=wrap;html=1;container=0;dropTarget=0;collapsible=0;recursiveResize=0;outlineConnect=0;portConstraint=eastwest;newEdgeStyle={&quot;edgeStyle&quot;:&quot;elbowEdgeStyle&quot;,&quot;elbow&quot;:&quot;vertical&quot;,&quot;curved&quot;:0,&quot;rounded&quot;:0};" parent="1" vertex="1">
          <mxGeometry x="30" y="30" width="100" height="290" as="geometry" />
        </mxCell>
        <mxCell id="aM9ryv3xv72pqoxQDRHE-2" value="" style="html=1;points=[];perimeter=orthogonalPerimeter;outlineConnect=0;targetShapes=umlLifeline;portConstraint=eastwest;newEdgeStyle={&quot;edgeStyle&quot;:&quot;elbowEdgeStyle&quot;,&quot;elbow&quot;:&quot;vertical&quot;,&quot;curved&quot;:0,&quot;rounded&quot;:0};" parent="aM9ryv3xv72pqoxQDRHE-1" vertex="1">
          <mxGeometry x="45" y="70" width="10" height="190" as="geometry" />
        </mxCell>
        <mxCell id="JBWoJpdDoiDVbsw0DVo4-25" value="" style="edgeStyle=elbowEdgeStyle;rounded=0;orthogonalLoop=1;jettySize=auto;html=1;elbow=horizontal;curved=0;" parent="1" source="JBWoJpdDoiDVbsw0DVo4-21" target="JBWoJpdDoiDVbsw0DVo4-24" edge="1">
          <mxGeometry relative="1" as="geometry">
            <Array as="points">
              <mxPoint x="210" y="140" />
            </Array>
          </mxGeometry>
        </mxCell>
        <mxCell id="JBWoJpdDoiDVbsw0DVo4-47" value="2:create" style="edgeLabel;html=1;align=center;verticalAlign=middle;resizable=0;points=[];" parent="JBWoJpdDoiDVbsw0DVo4-25" vertex="1" connectable="0">
          <mxGeometry x="0.235" y="-2" relative="1" as="geometry">
            <mxPoint x="-14" y="-12" as="offset" />
          </mxGeometry>
        </mxCell>
        <mxCell id="JBWoJpdDoiDVbsw0DVo4-21" value="" style="html=1;points=[];perimeter=orthogonalPerimeter;outlineConnect=0;targetShapes=umlLifeline;portConstraint=eastwest;newEdgeStyle={&quot;edgeStyle&quot;:&quot;elbowEdgeStyle&quot;,&quot;elbow&quot;:&quot;vertical&quot;,&quot;curved&quot;:0,&quot;rounded&quot;:0};" parent="1" vertex="1">
          <mxGeometry x="165" y="100" width="10" height="40" as="geometry" />
        </mxCell>
        <mxCell id="JBWoJpdDoiDVbsw0DVo4-22" value="" style="edgeStyle=elbowEdgeStyle;rounded=0;orthogonalLoop=1;jettySize=auto;html=1;elbow=vertical;curved=0;" parent="1" source="aM9ryv3xv72pqoxQDRHE-2" target="JBWoJpdDoiDVbsw0DVo4-21" edge="1">
          <mxGeometry relative="1" as="geometry">
            <Array as="points">
              <mxPoint x="120" y="100" />
            </Array>
          </mxGeometry>
        </mxCell>
        <mxCell id="JBWoJpdDoiDVbsw0DVo4-23" value="1:Click()" style="edgeLabel;html=1;align=center;verticalAlign=middle;resizable=0;points=[];" parent="JBWoJpdDoiDVbsw0DVo4-22" vertex="1" connectable="0">
          <mxGeometry x="0.245" y="-5" relative="1" as="geometry">
            <mxPoint x="-15" y="-15" as="offset" />
          </mxGeometry>
        </mxCell>
        <mxCell id="JBWoJpdDoiDVbsw0DVo4-27" value="" style="edgeStyle=elbowEdgeStyle;rounded=0;orthogonalLoop=1;jettySize=auto;html=1;elbow=vertical;curved=0;" parent="1" source="JBWoJpdDoiDVbsw0DVo4-24" target="JBWoJpdDoiDVbsw0DVo4-26" edge="1">
          <mxGeometry relative="1" as="geometry">
            <Array as="points">
              <mxPoint x="300" y="180" />
            </Array>
          </mxGeometry>
        </mxCell>
        <mxCell id="JBWoJpdDoiDVbsw0DVo4-48" value="3:click()" style="edgeLabel;html=1;align=center;verticalAlign=middle;resizable=0;points=[];" parent="JBWoJpdDoiDVbsw0DVo4-27" vertex="1" connectable="0">
          <mxGeometry x="-0.3723" relative="1" as="geometry">
            <mxPoint x="5" y="-10" as="offset" />
          </mxGeometry>
        </mxCell>
        <mxCell id="JBWoJpdDoiDVbsw0DVo4-24" value="" style="html=1;points=[];perimeter=orthogonalPerimeter;outlineConnect=0;targetShapes=umlLifeline;portConstraint=eastwest;newEdgeStyle={&quot;edgeStyle&quot;:&quot;elbowEdgeStyle&quot;,&quot;elbow&quot;:&quot;vertical&quot;,&quot;curved&quot;:0,&quot;rounded&quot;:0};" parent="1" vertex="1">
          <mxGeometry x="255" y="140" width="10" height="40" as="geometry" />
        </mxCell>
        <mxCell id="JBWoJpdDoiDVbsw0DVo4-29" value="" style="edgeStyle=elbowEdgeStyle;rounded=0;orthogonalLoop=1;jettySize=auto;html=1;elbow=horizontal;curved=0;" parent="1" source="JBWoJpdDoiDVbsw0DVo4-26" target="JBWoJpdDoiDVbsw0DVo4-28" edge="1">
          <mxGeometry relative="1" as="geometry">
            <Array as="points">
              <mxPoint x="380" y="220" />
            </Array>
          </mxGeometry>
        </mxCell>
        <mxCell id="JBWoJpdDoiDVbsw0DVo4-49" value="4:create" style="edgeLabel;html=1;align=center;verticalAlign=middle;resizable=0;points=[];" parent="JBWoJpdDoiDVbsw0DVo4-29" vertex="1" connectable="0">
          <mxGeometry x="-0.2427" y="2" relative="1" as="geometry">
            <mxPoint y="-8" as="offset" />
          </mxGeometry>
        </mxCell>
        <mxCell id="JBWoJpdDoiDVbsw0DVo4-26" value="" style="html=1;points=[];perimeter=orthogonalPerimeter;outlineConnect=0;targetShapes=umlLifeline;portConstraint=eastwest;newEdgeStyle={&quot;edgeStyle&quot;:&quot;elbowEdgeStyle&quot;,&quot;elbow&quot;:&quot;vertical&quot;,&quot;curved&quot;:0,&quot;rounded&quot;:0};" parent="1" vertex="1">
          <mxGeometry x="330" y="180" width="10" height="40" as="geometry" />
        </mxCell>
        <mxCell id="JBWoJpdDoiDVbsw0DVo4-28" value="" style="html=1;points=[];perimeter=orthogonalPerimeter;outlineConnect=0;targetShapes=umlLifeline;portConstraint=eastwest;newEdgeStyle={&quot;edgeStyle&quot;:&quot;elbowEdgeStyle&quot;,&quot;elbow&quot;:&quot;vertical&quot;,&quot;curved&quot;:0,&quot;rounded&quot;:0};" parent="1" vertex="1">
          <mxGeometry x="415" y="220" width="10" height="50" as="geometry" />
        </mxCell>
        <mxCell id="JBWoJpdDoiDVbsw0DVo4-32" value="" style="endArrow=none;dashed=1;html=1;rounded=0;" parent="1" target="JBWoJpdDoiDVbsw0DVo4-26" edge="1">
          <mxGeometry width="50" height="50" relative="1" as="geometry">
            <mxPoint x="335" y="320" as="sourcePoint" />
            <mxPoint x="450" y="300" as="targetPoint" />
          </mxGeometry>
        </mxCell>
        <mxCell id="JBWoJpdDoiDVbsw0DVo4-33" value="" style="endArrow=classic;html=1;rounded=0;" parent="1" source="JBWoJpdDoiDVbsw0DVo4-28" target="aM9ryv3xv72pqoxQDRHE-1" edge="1">
          <mxGeometry width="50" height="50" relative="1" as="geometry">
            <mxPoint x="400" y="310" as="sourcePoint" />
            <mxPoint x="140" y="330" as="targetPoint" />
            <Array as="points">
              <mxPoint x="250" y="270" />
            </Array>
          </mxGeometry>
        </mxCell>
        <mxCell id="JBWoJpdDoiDVbsw0DVo4-50" value="4.1:VisualizzaStatistichePilota" style="edgeLabel;html=1;align=center;verticalAlign=middle;resizable=0;points=[];" parent="JBWoJpdDoiDVbsw0DVo4-33" vertex="1" connectable="0">
          <mxGeometry x="-0.543" y="1" relative="1" as="geometry">
            <mxPoint x="-138" y="-11" as="offset" />
          </mxGeometry>
        </mxCell>
        <mxCell id="JBWoJpdDoiDVbsw0DVo4-43" value="" style="ellipse;shape=umlControl;whiteSpace=wrap;html=1;" parent="1" vertex="1">
          <mxGeometry x="250" y="100" width="25" height="30" as="geometry" />
        </mxCell>
        <mxCell id="JBWoJpdDoiDVbsw0DVo4-44" value=":visualizzaSezionePilotaControl" style="text;html=1;strokeColor=none;fillColor=none;align=center;verticalAlign=middle;whiteSpace=wrap;rounded=0;" parent="1" vertex="1">
          <mxGeometry x="340" y="100" width="60" height="30" as="geometry" />
        </mxCell>
        <mxCell id="JBWoJpdDoiDVbsw0DVo4-54" value="" style="shape=umlBoundary;whiteSpace=wrap;html=1;" parent="1" vertex="1">
          <mxGeometry x="152.5" y="60" width="35" height="30" as="geometry" />
        </mxCell>
        <mxCell id="JBWoJpdDoiDVbsw0DVo4-55" value="" style="shape=umlBoundary;whiteSpace=wrap;html=1;" parent="1" vertex="1">
          <mxGeometry x="320" y="140" width="35" height="30" as="geometry" />
        </mxCell>
        <mxCell id="JBWoJpdDoiDVbsw0DVo4-57" value=":accedreStatistichePilotaButton" style="text;html=1;strokeColor=none;fillColor=none;align=center;verticalAlign=middle;whiteSpace=wrap;rounded=0;" parent="1" vertex="1">
          <mxGeometry x="415" y="140" width="60" height="30" as="geometry" />
        </mxCell>
        <mxCell id="JBWoJpdDoiDVbsw0DVo4-59" value=":accedereSezionePilotaButton" style="text;html=1;strokeColor=none;fillColor=none;align=center;verticalAlign=middle;whiteSpace=wrap;rounded=0;" parent="1" vertex="1">
          <mxGeometry x="250" y="60" width="60" height="30" as="geometry" />
        </mxCell>
        <mxCell id="sW5JK7x3Y2BCzrLKk8R1-3" value="" style="ellipse;shape=umlControl;whiteSpace=wrap;html=1;" vertex="1" parent="1">
          <mxGeometry x="410" y="180" width="25" height="30" as="geometry" />
        </mxCell>
        <mxCell id="sW5JK7x3Y2BCzrLKk8R1-4" value=":visualizzaStatistichePilotaControl" style="text;html=1;strokeColor=none;fillColor=none;align=center;verticalAlign=middle;whiteSpace=wrap;rounded=0;" vertex="1" parent="1">
          <mxGeometry x="500" y="180" width="60" height="30" as="geometry" />
        </mxCell>
        <mxCell id="sW5JK7x3Y2BCzrLKk8R1-9" value="" style="endArrow=none;dashed=1;html=1;rounded=0;" edge="1" parent="1" target="JBWoJpdDoiDVbsw0DVo4-28">
          <mxGeometry width="50" height="50" relative="1" as="geometry">
            <mxPoint x="420" y="320" as="sourcePoint" />
            <mxPoint x="419.5" y="280" as="targetPoint" />
          </mxGeometry>
        </mxCell>
        <mxCell id="sW5JK7x3Y2BCzrLKk8R1-10" value="" style="endArrow=none;dashed=1;html=1;rounded=0;" edge="1" parent="1" target="JBWoJpdDoiDVbsw0DVo4-24">
          <mxGeometry width="50" height="50" relative="1" as="geometry">
            <mxPoint x="260" y="250" as="sourcePoint" />
            <mxPoint x="259.5" y="190" as="targetPoint" />
          </mxGeometry>
        </mxCell>
        <mxCell id="sW5JK7x3Y2BCzrLKk8R1-11" value="" style="endArrow=none;dashed=1;html=1;rounded=0;" edge="1" parent="1">
          <mxGeometry width="50" height="50" relative="1" as="geometry">
            <mxPoint x="260" y="320" as="sourcePoint" />
            <mxPoint x="259.5" y="280" as="targetPoint" />
          </mxGeometry>
        </mxCell>
        <mxCell id="sW5JK7x3Y2BCzrLKk8R1-12" value="" style="endArrow=none;dashed=1;html=1;rounded=0;" edge="1" parent="1" target="JBWoJpdDoiDVbsw0DVo4-21">
          <mxGeometry width="50" height="50" relative="1" as="geometry">
            <mxPoint x="169.75" y="250" as="sourcePoint" />
            <mxPoint x="169.75" y="180" as="targetPoint" />
          </mxGeometry>
        </mxCell>
        <mxCell id="sW5JK7x3Y2BCzrLKk8R1-13" value="" style="endArrow=none;dashed=1;html=1;rounded=0;" edge="1" parent="1">
          <mxGeometry width="50" height="50" relative="1" as="geometry">
            <mxPoint x="169.75" y="320" as="sourcePoint" />
            <mxPoint x="169.25" y="280" as="targetPoint" />
          </mxGeometry>
        </mxCell>
      </root>
    </mxGraphModel>
  </diagram>
</mxfile>
